<svg role="img" focusable="false" xmlns="http://www.w3.org/2000/svg" width="20" height="20" viewBox="0 0 20 20" aria-hidden="true"><path d="M9.238,6.53l0,-0.088c0,-0.048 0,-0.064 -0.008,-0.112c-0.072,-0.664 -0.08,-0.8 -0.088,-1.832c0.368,-0.12 0.744,-0.184 1.112,-0.184c0.088,0 0.128,0 0.385,0.016c-0.369,0.84 -0.705,1.4 -1.225,2c-0.064,0.064 -0.072,0.08 -0.152,0.208l-0.024,-0.008Zm-0.592,-1.832c0,0.968 0.048,1.552 0.16,2.168c-0.36,0.288 -0.624,0.408 -0.92,0.408c-0.344,0 -0.576,-0.288 -0.576,-0.728c0,-0.4 0.176,-0.824 0.488,-1.192c0.224,-0.256 0.456,-0.44 0.848,-0.656m-1.624,-1.752c0.056,-0.008 0.096,-0.008 0.128,-0.008c0.016,0 0.072,0 0.144,0.008c0.64,0.024 1,0.04 1.08,0.04l0.32,0c-0.04,0.584 -0.04,0.624 -0.048,1.208c-1.16,0.504 -1.856,1.4 -1.856,2.384c0,0.712 0.432,1.216 1.032,1.216c0.56,0 1.168,-0.328 1.784,-0.968c0.624,-0.632 1.056,-1.32 1.52,-2.4c0.864,0.224 1.32,0.704 1.32,1.392c0,0.712 -0.504,1.296 -1.375,1.6c-0.385,0.136 -0.729,0.2 -1.201,0.216c0.144,0.216 0.184,0.304 0.256,0.536c0.72,-0.088 1.176,-0.216 1.632,-0.456c0.824,-0.432 1.256,-1.064 1.256,-1.848c0,-0.936 -0.615,-1.616 -1.72,-1.872c0.136,-0.376 0.224,-0.592 0.248,-0.64l-0.552,-0.168c-0.032,0.24 -0.095,0.48 -0.192,0.72c-0.2,-0.016 -0.296,-0.024 -0.464,-0.024c-0.424,0 -0.776,0.048 -1.184,0.16c0.008,-0.392 0.008,-0.392 0.056,-1.072c0.744,-0.024 1.96,-0.16 2.832,-0.32c0.152,-0.024 0.176,-0.024 0.281,-0.04l-0.033,-0.56c-0.608,0.216 -1.744,0.384 -3.048,0.448c0.056,-0.624 0.096,-0.896 0.168,-1.12l-0.624,-0.04c0.008,0.056 0.008,0.104 0.008,0.12c0,0.056 -0.016,0.368 -0.024,0.456c-0.032,0.408 -0.032,0.408 -0.04,0.6c-0.144,0.008 -0.176,0.008 -0.2,0.008c-0.736,0 -1.16,-0.032 -1.496,-0.128l-0.008,0.552Zm1.124,12.555l-1.98,0l0,-2.844l1.98,0l0,2.844Zm2.665,0l-1.92,0l0,-2.844l1.92,0l0,2.844Zm0.744,-2.844l2.063,0l0,2.844l-2.063,0l0,-2.844Zm-2.665,3.504l1.92,0l0,2.376l-1.92,0l0,-2.376Zm0,-6.06l1.92,0l0,1.883l-1.92,0l0,-1.883Zm-0.744,0l0,1.884l-1.38,0c-0.576,0 -1.008,-0.012 -1.416,-0.06c0.048,0.349 0.06,0.66 0.06,1.188l0,1.92c0,0.528 -0.012,0.84 -0.06,1.188c0.396,-0.035 0.876,-0.06 1.416,-0.06l1.38,0l0,2.376l-2.352,0c-0.588,0 -0.96,-0.023 -1.332,-0.084l0,0.876c0.432,-0.059 0.78,-0.084 1.368,-0.084l8.149,0c0.576,0 0.924,0.025 1.355,0.084l0,-0.876c-0.359,0.061 -0.732,0.084 -1.32,0.084l-2.459,0l0,-2.376l1.451,0c0.54,0 1.02,0.025 1.416,0.06c-0.048,-0.336 -0.06,-0.636 -0.06,-1.188l0,-1.92c0,-0.552 0.012,-0.852 0.06,-1.188c-0.408,0.048 -0.84,0.06 -1.439,0.06l-1.428,0l0,-1.884l2.303,0c0.564,0 0.949,0.024 1.32,0.072l0,-0.84c-0.371,0.048 -0.744,0.072 -1.332,0.072l-7.884,0c-0.588,0 -0.972,-0.024 -1.332,-0.072l0,0.84c0.384,-0.048 0.756,-0.072 1.344,-0.072l2.172,0Z"/></svg>